<?xml version="1.0" encoding="UTF-8"?>
<svg width="24px" height="22px" viewBox="0 0 24 22" version="1.1" xmlns="http://www.w3.org/2000/svg" xmlns:xlink="http://www.w3.org/1999/xlink">
    <!-- Generator: Sketch 51.3 (57544) - http://www.bohemiancoding.com/sketch -->
    <title>Like</title>
    <desc>Created with Sketch.</desc>
    <defs></defs>
    <g id="Symbols" stroke="none" stroke-width="1" fill="none" fill-rule="evenodd">
        <g id="Navigation-Bar---III" transform="translate(-280.000000, -18.000000)" stroke="#FFFFFF">
            <g id="Like---Inactive" transform="translate(280.000000, 18.000000)">
                <path d="M17.5033521,0.570318755 C15.6855876,0.570318755 13.9859411,1.47212398 12.8397773,3.0452911 L12.0014523,5.25052625 L11.1626046,3.0452911 C10.0174861,1.47266366 8.317317,0.570318755 6.49955243,0.570318755 C5.46732556,0.570318755 4.44398369,0.874698258 3.53980522,1.45107647 C0.628141484,3.3064962 -0.364364247,7.44638125 1.32639723,10.6796039 C2.83475507,13.563114 9.68456029,18.9129616 11.7484914,20.48397 C11.8420451,20.5552077 11.9376894,20.5703188 12.0014523,20.5703188 C12.0652152,20.5703188 12.1608595,20.5552077 12.2549358,20.48397 C14.3183443,18.9129616 21.1686721,13.563114 22.67703,10.6796039 C24.3677915,7.44638125 23.3752857,3.3064962 20.4630994,1.45107647 C19.5589209,0.874698258 18.535579,0.570318755 17.5033521,0.570318755 Z" id="Combined-Shape"></path>
            </g>
        </g>
    </g>
</svg>