<?xml version="1.0" encoding="UTF-8"?>
<svg width="24px" height="24px" viewBox="0 0 24 24" version="1.1" xmlns="http://www.w3.org/2000/svg" xmlns:xlink="http://www.w3.org/1999/xlink">
    <!-- Generator: Sketch 51.3 (57544) - http://www.bohemiancoding.com/sketch -->
    <title>Home</title>
    <desc>Created with Sketch.</desc>
    <defs></defs>
    <g id="Symbols" stroke="none" stroke-width="1" fill="none" fill-rule="evenodd">
        <g id="Home" transform="translate(1.000000, 1.000000)" stroke="#FFFFFF">
            <path d="M13.6190476,21.6485392 L13.6190476,15.2675868 C13.6190476,13.8211268 12.4464601,12.6485392 11,12.6485392 C9.55353994,12.6485392 8.38095238,13.8211268 8.38095238,15.2675868 L8.38095238,21.6485392 L1,21.6485392 C0.44771525,21.6485392 6.76353751e-17,21.200824 0,20.6485392 L1.77635684e-15,10.0909091 C1.74185303e-15,9.80916412 0.11885281,9.5404912 0.327327206,9.35096902 L10.3273272,0.260059927 C10.7087484,-0.0866866422 11.2912516,-0.0866866422 11.6726728,0.260059927 L21.6726728,9.35096902 C21.8811472,9.5404912 22,9.80916412 22,10.0909091 L22,20.6485392 C22,21.200824 21.5522847,21.6485392 21,21.6485392 L13.6190476,21.6485392 Z" id="Combined-Shape"></path>
        </g>
    </g>
</svg>