<svg xmlns="http://www.w3.org/2000/svg" viewBox="0 0 1113 273.63"><title>Middel 1</title><g id="Laag_2" data-name="Laag 2"><g id="Laag_1-2" data-name="Laag 1"><path d="M3.9,108.53c-.95,3.38-1.6,6.83-2.38,10.24l-.05.83Q12.89,124.79,24.29,130c7.23,3.31,14.48,6.6,21.66,10a11.19,11.19,0,0,1,6.46,11.19,11.6,11.6,0,0,1-9,10,11.94,11.94,0,0,1-7.94-1Q18.9,152.54,2.35,145c-.62-.29-1.25-.54-2.35-1,.42,4.7.54,9.07,1.27,13.34C2.41,163.89,4,170.42,5.36,177a3.7,3.7,0,0,0,2.36,2.84q58.08,26.73,116.13,53.54c4.26,2,5.84,5.48,4.12,9.24s-5.47,5.08-9.47,3.24q-18.45-8.47-36.88-17L15.29,198.27a3.66,3.66,0,0,0-2.14-.35c2.8,4.81,5.37,9.78,8.44,14.42,20.89,31.53,50.11,51,87.31,58.73,4.58.95,9.28,1.28,13.92,1.92a15.83,15.83,0,0,1,1.77.45l2.93.19a12.29,12.29,0,0,1,1.8-.22c3.42,0,6.86.21,10.28.06a136.28,136.28,0,0,0,77.86-27.91,8.2,8.2,0,0,1,1.73-.77,6.8,6.8,0,0,0-1.95-1.37l-75.47-34.8q-19.29-8.9-38.57-17.82a11.12,11.12,0,0,1-6.27-13.29c2.25-7.23,9.55-10.22,16.9-6.84l116.55,53.7c2.13,1,4.59,2.9,6.42,2.46s3.31-3.17,4.66-5.09c4.19-5.94,8.25-12,12.51-18.2L9.21,90.71C7.36,96.86,5.54,102.67,3.9,108.53Z"/><path d="M226.81,133.08a9.23,9.23,0,0,1-5.8-7.84c-.67-8.18,7.59-16.26,16.91-12.06,5,2.24,9.89,4.55,14.83,6.83l20.88,9.59c0-.74,0-1.07,0-1.4-.85-10.89-3.32-21.48-6-32a3.55,3.55,0,0,0-1.83-1.93q-35-16.25-70.12-32.4Q171,50.5,146.35,39.17c-2.23-1-4-2.42-4.47-4.87a6.78,6.78,0,0,1,2.6-7c2.32-1.85,4.84-1.74,7.48-.52q53.22,24.57,106.46,49.08c.7.33,1.42.59,2.39,1-37.8-80-140.42-100-204.9-48.2.46.23.87.46,1.3.65L147.52,70.9c8,3.69,16,7.33,23.94,11.07,7.09,3.34,9.11,11.77,4.31,17.64-3.45,4.24-8.92,5.27-14.42,2.73Q100.42,74.25,39.5,46.12c-1.41-.65-2.25-.54-3.14.71C32.25,52.52,28,58.11,24,63.86c-1.77,2.52-3.14,5.31-4.77,8.1l244.29,112.6A130.55,130.55,0,0,0,272.13,154l-2.36-1.13Q248.29,143,226.81,133.08Z"/><polygon points="360.1 76.44 333.44 76.44 333.44 203.19 426.1 203.19 426.1 180.69 360.1 180.69 360.1 76.44"/><rect x="438.76" y="113.9" width="25.67" height="89.29"/><path d="M536.34,111.52c-11.78,0-22.19,5.32-27.6,13.83V113.9H483.07v89.29h25.67V155.47c0-14.33,7.16-23.23,18.68-23.23,10.68,0,16.1,6.81,16.1,20.26v50.69h25.67V147.74C569.19,124.38,557.52,111.52,536.34,111.52Z"/><path d="M650.39,172.56c-3.3,9.71-10,13.08-21.11,13.08-12.13,0-21.55-8.39-22.76-20.11H672v-9.46c0-27.07-17.33-44.55-44.15-44.55-27.07,0-46.72,20.32-46.72,48.31,0,27.36,19,45.74,47.32,45.74,22.57,0,37.64-10.39,42.36-30.51m-63.78-26.28c1.67-7.18,6.54-17.93,20.63-17.93,12.63,0,18.14,9.08,19.17,17.93Z"/><path d="M734.52,111.52c-11,0-19.3,7.29-23.43,15.27V113.9H685.41v89.29h25.68V159c0-14.8,7.35-23.63,19.66-23.63a25.67,25.67,0,0,1,13.81,3.64l1.29.73,1.94-24.16-.37-.31C744.57,112.9,739.87,111.52,734.52,111.52Z"/><path d="M810.22,111.52c-11.77,0-22.18,5.32-27.59,13.83V113.9H757v89.29h25.67V155.47c0-14.33,7.16-23.23,18.68-23.23,10.68,0,16.1,6.81,16.1,20.26v50.69h25.67V147.74C843.08,124.38,831.41,111.52,810.22,111.52Z"/><path d="M902,111.52c-27.63,0-46.92,19.38-46.92,47.12s19.29,46.93,46.92,46.93,47.12-19.3,47.12-46.93S929.73,111.52,902,111.52Zm21.26,47.12c0,16.91-8,27-21.26,27s-21.05-10.09-21.05-27,7.87-27.2,21.05-27.2S923.24,141.61,923.24,158.64Z"/><path d="M1000.28,184.65c-6.7,0-9.56-3-9.56-10V132.43h23.78V113.9H990.72V89.72H974.56l-2.94,12.61c-2,8.06-4.19,11.87-12.13,13.17l-6.73,1.12v15.81h12.49v47.62c0,21.09,14,25.52,25.72,25.52,10,0,17.62-2.38,24.74-7.72l.38-.29V180l-1.34.62C1010.38,182.59,1005.25,184.65,1000.28,184.65Z"/><path d="M1091.34,172.56c-3.3,9.71-10,13.08-21.1,13.08-12.14,0-21.56-8.39-22.76-20.11H1113v-9.46c0-27.07-17.33-44.55-44.15-44.55-27.08,0-46.73,20.32-46.73,48.31,0,27.36,19,45.74,47.32,45.74,22.57,0,37.65-10.39,42.37-30.51m-43.16-44.21c12.63,0,18.14,9.08,19.18,17.93H1048C1049.7,141.6,1054.56,130.85,1068.65,130.85Z"/><path d="M451.49,68.06a15.87,15.87,0,1,0,15.87,15.87A15.89,15.89,0,0,0,451.49,68.06Z"/></g></g></svg>