<svg xmlns="http://www.w3.org/2000/svg" viewBox="0 0 273 273"><title>Middel 5</title><g id="Laag_2" data-name="Laag 2"><g id="Laag_1-2" data-name="Laag 1"><path d="M.77,119.79q10.85,4.93,21.7,9.86c7.32,3.35,14.66,6.68,22,10.13A11.31,11.31,0,0,1,51,151.1a11.74,11.74,0,0,1-9.16,10.14,12.15,12.15,0,0,1-8-1Q17,152.46.23,144.78l-.23-.1a135.72,135.72,0,0,0,7.09,36q58.15,26.72,116.27,53.51c4.32,2,5.92,5.54,4.18,9.34s-5.54,5.15-9.6,3.28L80.56,229.66,15.21,199.58a136.91,136.91,0,0,0,204,45.58,5.72,5.72,0,0,0-1.25-.77l-76.48-35.2q-19.56-9-39.1-18a11.24,11.24,0,0,1-6.34-13.44c2.27-7.32,9.67-10.34,17.12-6.92l118.12,54.32c2.16,1,4.65,2.94,6.51,2.5a3.15,3.15,0,0,0,.76-.32,11.73,11.73,0,0,0,3.17-3.67c.26-.4.53-.8.79-1.16,4.24-6,8.36-12.12,12.68-18.42L7.82,90.21A135.38,135.38,0,0,0,.77,119.79Z"/><path d="M227.71,132.78c-3.42-1.58-5.57-4.24-5.87-7.94-.68-8.28,7.68-16.45,17.13-12.2,5,2.27,10,4.61,15,6.91l19,8.71a135.82,135.82,0,0,0-6.82-35.21q-35-16.22-70.1-32.33-25-11.49-49.91-22.94c-2.26-1-4-2.46-4.53-4.93a6.84,6.84,0,0,1,2.63-7.11c2.35-1.88,4.91-1.77,7.59-.53Q205,49.71,258.18,74.14a136.94,136.94,0,0,0-203.55-47c.41.21.8.42,1.2.6l91.52,42.12c8.09,3.72,16.21,7.4,24.27,11.19,7.19,3.38,9.23,11.91,4.37,17.85-3.51,4.29-9,5.33-14.62,2.76Q99.62,73.26,37.88,44.81c-1.43-.66-2.28-.55-3.19.71-4.16,5.76-8.45,11.42-12.53,17.23C20.37,65.3,19,68.12,17.33,71L264.49,184.66a135.37,135.37,0,0,0,7.73-31.37l-1-.46Z"/></g></g></svg>