<?xml version="1.0" encoding="utf-8"?>
<!-- Generator: Adobe Illustrator 23.0.3, SVG Export Plug-In . SVG Version: 6.00 Build 0)  -->
<svg version="1.1" id="Laag_1" xmlns="http://www.w3.org/2000/svg" xmlns:xlink="http://www.w3.org/1999/xlink" x="0px" y="0px"
	 viewBox="0 0 1248 364" style="enable-background:new 0 0 1248 364;" xml:space="preserve">
<style type="text/css">
	.st0{fill:#FFFFFF;}
</style>
<g>
	<g>
		<path class="st0" d="M71.65,153.7c-0.94,3.37-1.59,6.82-2.37,10.24c-0.02,0.28-0.04,0.55-0.05,0.83
			c7.61,3.46,15.22,6.91,22.82,10.39c7.23,3.31,14.47,6.6,21.66,10.01c4.43,2.1,6.95,6.66,6.46,11.19
			c-0.53,4.89-4.11,8.88-9.04,10.02c-2.77,0.64-5.39,0.16-7.95-1.03c-11.02-5.1-22.05-10.17-33.08-15.25
			c-0.62-0.29-1.25-0.54-2.35-1.01c0.42,4.7,0.54,9.07,1.27,13.34c1.14,6.61,2.72,13.14,4.09,19.71c0.29,1.39,0.99,2.21,2.36,2.84
			c38.73,17.81,77.42,35.69,116.13,53.54c4.27,1.97,5.84,5.47,4.12,9.24c-1.73,3.79-5.46,5.08-9.47,3.24
			c-12.3-5.65-24.59-11.33-36.88-17c-22.11-10.19-44.22-20.39-66.33-30.58c-0.55-0.25-1.12-0.47-2.13-0.35
			c2.8,4.82,5.37,9.78,8.44,14.42c20.88,31.53,50.11,51,87.31,58.73c4.57,0.95,9.28,1.28,13.92,1.92c0.6,0.08,1.18,0.3,1.76,0.45
			c0.98,0.06,1.96,0.12,2.94,0.19c0.6-0.08,1.2-0.22,1.79-0.22c3.43,0.01,6.86,0.22,10.28,0.07c28.88-1.26,54.85-10.55,77.87-27.91
			c0.49-0.37,1.14-0.52,1.72-0.77c-0.97-0.89-1.45-1.14-1.95-1.37c-25.16-11.6-50.31-23.2-75.47-34.8
			c-12.86-5.93-25.74-11.84-38.57-17.82c-5.28-2.46-7.87-8.12-6.26-13.29c2.25-7.23,9.55-10.22,16.9-6.84
			c38.85,17.89,77.69,35.8,116.54,53.69c2.14,0.98,4.59,2.91,6.43,2.47c1.87-0.45,3.3-3.17,4.66-5.09
			c4.19-5.94,8.25-11.98,12.52-18.21c-81.84-37.72-163.09-75.18-244.77-112.82C75.11,142.03,73.29,147.84,71.65,153.7z"/>
		<path class="st0" d="M294.56,178.25c-3.37-1.56-5.49-4.19-5.79-7.85c-0.67-8.18,7.59-16.26,16.91-12.06
			c4.96,2.24,9.89,4.55,14.83,6.83c6.84,3.14,13.67,6.28,20.87,9.59c-0.02-0.73-0.01-1.07-0.04-1.4
			c-0.85-10.89-3.32-21.48-6.04-32.02c-0.2-0.76-1.06-1.58-1.83-1.93c-23.36-10.83-46.74-21.61-70.13-32.4
			c-16.41-7.57-32.82-15.15-49.25-22.68c-2.22-1.02-3.96-2.42-4.47-4.87c-0.59-2.83,0.35-5.24,2.59-7.03
			c2.32-1.85,4.84-1.74,7.48-0.52c35.48,16.38,70.97,32.73,106.46,49.09c0.7,0.32,1.42,0.59,2.39,0.99
			c-37.8-80.05-140.42-100-204.9-48.2c0.45,0.23,0.87,0.46,1.3,0.66c30.1,13.88,60.21,27.75,90.31,41.63
			c7.98,3.68,15.99,7.32,23.94,11.07c7.09,3.34,9.11,11.77,4.31,17.64c-3.46,4.24-8.92,5.27-14.43,2.73
			c-40.62-18.73-81.25-37.45-121.85-56.22c-1.41-0.65-2.25-0.54-3.14,0.7c-4.11,5.69-8.34,11.29-12.37,17.03
			c-1.77,2.52-3.14,5.31-4.77,8.1c81.58,37.6,162.86,75.07,244.28,112.6c4.18-9.98,6.99-20.06,8.63-30.52
			c-0.86-0.41-1.61-0.78-2.37-1.13C323.2,191.46,308.87,184.86,294.56,178.25z"/>
	</g>
	<g>
		<polygon class="st0" points="427.85,121.6 401.19,121.6 401.19,248.35 493.85,248.35 493.85,225.85 427.85,225.85 		"/>
		<rect x="506.51" y="159.06" class="st0" width="25.67" height="89.29"/>
		<path class="st0" d="M604.09,156.68c-11.77,0-22.19,5.32-27.6,13.83v-11.45h-25.67v89.29h25.67v-47.72
			c0-14.33,7.16-23.24,18.68-23.24c10.68,0,16.1,6.82,16.1,20.26v50.69h25.67V192.9C636.94,169.55,625.27,156.68,604.09,156.68z"/>
		<path class="st0" d="M718.14,217.73c-3.3,9.7-10.01,13.08-21.11,13.08c-12.14,0-21.56-8.4-22.76-20.11h65.52v-9.47
			c0-27.06-17.33-44.55-44.15-44.55c-27.08,0-46.73,20.32-46.73,48.31c0,27.36,19.02,45.74,47.32,45.74
			c22.57,0,37.64-10.39,42.36-30.5 M674.82,193.94c1.68-7.18,6.54-17.93,20.63-17.93c12.63,0,18.14,9.08,19.18,17.93H674.82z"/>
		<path class="st0" d="M802.27,156.68c-11.02,0-19.3,7.29-23.43,15.27v-12.89h-25.67v89.29h25.67V204.2
			c0-14.8,7.35-23.63,19.67-23.63c5.3,0,9.17,1.02,13.81,3.64l1.29,0.73l1.94-24.15l-0.37-0.31
			C812.32,158.06,807.62,156.68,802.27,156.68z"/>
		<path class="st0" d="M877.97,156.68c-11.77,0-22.19,5.32-27.59,13.83v-11.45h-25.67v89.29h25.67v-47.72
			c0-14.33,7.16-23.24,18.68-23.24c10.68,0,16.1,6.82,16.1,20.26v50.69h25.67V192.9C910.83,169.55,899.16,156.68,877.97,156.68z"/>
		<path class="st0" d="M969.73,156.68c-27.63,0-46.92,19.38-46.92,47.12c0,27.63,19.3,46.93,46.92,46.93
			c27.75,0,47.12-19.3,47.12-46.93C1016.85,176.06,997.48,156.68,969.73,156.68z M990.99,203.81c0,16.91-7.95,27-21.26,27
			c-13.18,0-21.05-10.09-21.05-27c0-17.03,7.87-27.2,21.05-27.2C983.04,176.61,990.99,186.77,990.99,203.81z"/>
		<path class="st0" d="M1068.03,229.82c-6.7,0-9.56-2.98-9.56-9.96V177.6h23.78v-18.54h-23.78v-24.18h-16.16l-2.94,12.61
			c-1.97,8.06-4.18,11.87-12.12,13.17l-6.73,1.12v15.82H1033v47.61c0,21.09,13.99,25.52,25.72,25.52c9.99,0,17.63-2.38,24.74-7.72
			l0.38-0.28v-17.6l-1.34,0.62C1078.13,227.76,1073,229.82,1068.03,229.82z"/>
		<path class="st0" d="M1159.09,217.73c-3.3,9.7-10,13.08-21.11,13.08c-12.14,0-21.56-8.4-22.76-20.11h65.52v-9.47
			c0-27.06-17.33-44.55-44.15-44.55c-27.08,0-46.73,20.32-46.73,48.31c0,27.36,19.02,45.74,47.32,45.74
			c22.57,0,37.64-10.39,42.36-30.5 M1136.4,176.01c12.63,0,18.14,9.08,19.18,17.93h-39.81
			C1117.45,186.76,1122.31,176.01,1136.4,176.01z"/>
		<path class="st0" d="M519.24,113.22c-8.75,0-15.87,7.12-15.87,15.87s7.12,15.87,15.87,15.87c8.75,0,15.87-7.12,15.87-15.87
			S527.99,113.22,519.24,113.22z"/>
	</g>
</g>
</svg>
